<?xml version="1.0" encoding="utf-8"?>
<!-- Generator: Adobe Illustrator 18.1.1, SVG Export Plug-In . SVG Version: 6.00 Build 0)  -->
<svg version="1.1" id="Ebene_1" xmlns="http://www.w3.org/2000/svg" xmlns:xlink="http://www.w3.org/1999/xlink" x="0px" y="0px"
	 viewBox="0 269.1 612 249" enable-background="new 0 269.1 612 249" xml:space="preserve">
<g>
	<path fill="#3AAA35" d="M355.4,439.7c0,4.3-0.2,7.6-0.7,9.8c-0.6,2.2-1.3,3.9-2,4.8c-0.9,0.9-2.2,1.7-3.9,2.4
		c-1.7,0.7-3.7,1.3-5.9,1.9c-2.2,0.6-4.8,0.9-7.4,1.3c-2.6,0.4-5.4,0.4-8.1,0.4c-7.4,0-13.7-0.9-19.1-2.8c-5.4-1.9-9.8-4.6-13.3-8.5
		c-3.5-3.9-6.1-8.7-7.8-14.6s-2.4-12.8-2.4-20.7v-66.8H269c-1.9,0-3.3-1.1-4.3-3.5c-0.9-2.2-1.5-6.1-1.5-11.5c0-2.8,0.2-5.2,0.4-7.2
		c0.2-2,0.6-3.5,1.1-4.6c0.6-1.1,1.1-1.9,1.9-2.4c0.7-0.6,1.7-0.7,2.6-0.7h15.5v-29c0-0.9,0.2-1.9,0.7-2.6c0.6-0.7,1.5-1.5,3-2
		c1.5-0.6,3.3-0.9,5.7-1.1c2.4-0.2,5.4-0.4,8.9-0.4s6.7,0.2,9.1,0.4c2.4,0.2,4.3,0.6,5.6,1.1s2.4,1.1,3,2c0.6,0.7,0.9,1.7,0.9,2.6
		v29h28.3c0.9,0,1.9,0.2,2.6,0.7c0.7,0.6,1.3,1.3,1.9,2.4c0.6,1.1,0.9,2.6,1.1,4.6c0.2,2,0.4,4.3,0.4,7.2c0,5.4-0.6,9.3-1.5,11.5
		c-0.9,2.2-2.4,3.5-4.3,3.5h-28.5V408c0,7,1.1,12.4,3.3,16.1c2.2,3.5,6.3,5.4,12,5.4c2,0,3.7-0.2,5.2-0.6c1.5-0.4,3-0.7,4.3-1.1
		s2.2-0.7,3.1-1.1c0.9-0.4,1.7-0.6,2.2-0.6s1.1,0.2,1.7,0.6c0.6,0.4,0.9,1.1,1.3,2c0.4,0.9,0.6,2.4,0.7,4.3
		C355.2,434.7,355.4,436.9,355.4,439.7z"/>
	<path fill="#3AAA35" d="M495.3,383.4c0,4.4-0.9,7.8-3,10c-2,2.2-4.8,3.1-8.3,3.1h-79.6c0,5.6,0.7,10.5,2,15.2
		c1.3,4.6,3.3,8.3,6.3,11.5c3,3.1,6.7,5.6,11.1,7.2c4.6,1.7,10,2.4,16.3,2.4c6.5,0,12-0.4,17-1.5c4.8-0.9,9.1-2,12.6-3.1
		c3.5-1.1,6.5-2.2,8.9-3.1c2.4-0.9,4.3-1.5,5.7-1.5c0.9,0,1.7,0.2,2.2,0.6c0.6,0.4,1.1,0.9,1.5,1.9c0.4,0.9,0.7,2,0.7,3.7
		c0.2,1.7,0.2,3.7,0.2,6.1c0,2.2,0,4.1-0.2,5.6c-0.2,1.5-0.2,2.8-0.4,3.9c-0.2,1.1-0.6,2-0.9,2.8s-0.9,1.5-1.5,2
		c-0.6,0.7-2.4,1.7-5.2,2.8c-2.8,1.1-6.5,2.4-10.9,3.5c-4.4,1.1-9.4,2-15,3c-5.7,0.7-11.7,1.3-18.1,1.3c-11.7,0-21.8-1.5-30.5-4.4
		c-8.7-3-16.1-7.4-21.8-13.3c-5.9-5.9-10.2-13.5-13.1-22.6c-3-9.1-4.3-19.8-4.3-31.8c0-11.7,1.5-22,4.6-31.5
		c3-9.3,7.4-17.2,13.1-23.7s12.8-11.5,21.1-14.8c8.3-3.3,17.6-5.2,27.9-5.2c10.9,0,20.4,1.7,28.1,4.8c7.8,3.1,14.1,7.8,19.1,13.3
		c5,5.7,8.7,12.4,10.9,20.4c2.4,7.8,3.5,16.3,3.5,25.5v6.1H495.3z M459.6,372.9c0.4-10.4-1.9-18.5-6.3-24.4
		c-4.4-5.9-11.3-8.9-20.5-8.9c-4.6,0-8.7,0.9-12.2,2.6c-3.5,1.7-6.3,4.1-8.7,7c-2.2,3-4.1,6.5-5.2,10.5c-1.3,4.1-1.9,8.3-2.2,13
		h55.1V372.9z"/>
	<path fill="#3AAA35" d="M612,415.6c0,7.4-1.5,13.9-4.3,19.6c-2.8,5.7-6.7,10.4-11.8,14.2c-5,3.9-11.1,6.7-17.9,8.5
		c-6.8,1.9-14.4,2.8-22.6,2.8c-4.8,0-9.6-0.4-14.1-1.1c-4.4-0.7-8.5-1.7-12-2.8c-3.5-1.1-6.5-2.2-8.7-3.5c-2.4-1.1-4.1-2.2-5.2-3.3
		c-1.1-1.1-1.9-2.6-2.4-4.8s-0.9-5.4-0.9-9.8c0-2.8,0-5.2,0.4-6.8c0.2-1.7,0.6-3.1,0.9-4.1c0.4-1.1,0.9-1.7,1.5-2
		c0.6-0.4,1.3-0.6,2.2-0.6c1.1,0,2.6,0.6,4.8,1.9c2,1.3,4.6,2.6,7.8,4.1c3.1,1.5,6.8,2.8,10.9,4.1c4.1,1.3,8.9,1.9,14.1,1.9
		c3.3,0,6.3-0.4,8.9-1.1c2.6-0.7,4.8-1.7,6.7-3c1.9-1.3,3.3-3,4.3-4.8c0.9-2,1.5-4.3,1.5-6.7c0-3-0.9-5.4-2.8-7.6
		c-1.9-2-4.3-3.9-7.2-5.6c-3-1.5-6.3-3-10.2-4.4c-3.7-1.3-7.6-3-11.5-4.6c-3.9-1.7-7.8-3.5-11.7-5.7c-3.7-2.2-7-4.8-10.2-8
		c-3-3.1-5.4-6.8-7.2-11.3c-1.9-4.4-2.8-9.6-2.8-15.7c0-6.3,1.3-12,3.7-17.2c2.4-5.2,5.9-9.6,10.5-13.3c4.6-3.7,10.2-6.7,16.8-8.7
		c6.7-2,14.1-3.1,22.2-3.1c4.1,0,8.1,0.4,11.8,0.9c3.9,0.6,7.4,1.3,10.5,2.2c3.1,0.9,5.7,1.9,8,2.8c2.2,1.1,3.7,1.9,4.6,2.6
		c0.9,0.7,1.7,1.5,2,2.2c0.4,0.7,0.7,1.7,0.9,2.6c0.2,1.1,0.4,2.2,0.6,3.9c0.2,1.5,0.2,3.3,0.2,5.6c0,2.6,0,4.8-0.2,6.5
		c-0.2,1.7-0.4,3-0.7,3.9c-0.4,0.9-0.7,1.7-1.5,2c-0.6,0.4-1.3,0.6-2,0.6c-0.9,0-2.2-0.6-4.1-1.5c-1.9-1.1-4.3-2-7-3.3
		c-2.8-1.1-5.9-2.2-9.6-3.3s-7.8-1.5-12.6-1.5c-3.3,0-6.1,0.4-8.7,1.1c-2.4,0.7-4.4,1.7-5.9,3c-1.5,1.3-2.8,2.8-3.5,4.4
		s-1.1,3.5-1.1,5.6c0,3,0.9,5.6,2.8,7.6s4.3,3.9,7.4,5.4c3,1.5,6.5,3,10.4,4.4c3.9,1.3,7.8,2.8,11.7,4.4c3.9,1.7,7.8,3.5,11.7,5.6
		c3.9,2.2,7.2,4.8,10.4,8c3,3.1,5.6,6.8,7.4,11.3C610.9,404.5,612,409.7,612,415.6z"/>
	<path fill="#2D8E86" d="M199.6,313.1c26.5,0,55.5,13,55.5,74.2c0,62-33.7,73.3-56.1,73.3s-37.9-17.4-37.9-17.4V492
		c0,0,0.4,10.7-0.6,13.9c-0.9,3.1-8.9,4.4-8.9,4.4h-17.4c0,0-6.8,0-8.9-3c-2-3.1-1.5-14.1-1.5-14.1l0-55.5c0,0-14.8,22.6-57.5,22.6
		C7.6,460.6,0,415.2,0,387.7c0-29.8,10.4-73.8,71.2-73.8c54.8,0,66.2,40.9,66.2,40.9S151.1,313.1,199.6,313.1z M71.6,342.9
		c-21.1-0.7-34.2,17-34.2,40.5c0,24.8,6.7,48.3,27.4,48.3c22.6,0,36.4-8.5,36.4-45C101.4,358.4,92.9,343.6,71.6,342.9z M160,403
		c0,0,7.2,27.4,31.6,27.4c15.9,0,25.5-18.5,24.8-48.3c-0.7-29.8-15.2-37.2-27.2-37.2c-23.9,0-29.2,21.8-29.2,21.8V403z"/>
</g>
</svg>
